<?xml version="1.0" encoding="UTF-8" standalone="no"?>
<svg
   xmlns:dc="http://purl.org/dc/elements/1.1/"
   xmlns:cc="http://creativecommons.org/ns#"
   xmlns:rdf="http://www.w3.org/1999/02/22-rdf-syntax-ns#"
   xmlns:svg="http://www.w3.org/2000/svg"
   xmlns="http://www.w3.org/2000/svg"
   xmlns:sodipodi="http://sodipodi.sourceforge.net/DTD/sodipodi-0.dtd"
   xmlns:inkscape="http://www.inkscape.org/namespaces/inkscape"
   sodipodi:docname="template.svg"
   inkscape:version="1.0 (1.0+r73+1)"
   id="svg3424"
   version="1.1"
   viewBox="0 0 210 297"
   height="1122.5197"
   width="793.70081">
  <defs
     id="defs3418">
    <clipPath
       id="clipPath1439"
       clipPathUnits="userSpaceOnUse">
      <rect
         ry="10.583333"
         y="0"
         x="22.16041"
         height="104.76706"
         width="165.67918"
         id="rect1441"
         style="opacity:0.3;vector-effect:none;fill:#000000;fill-opacity:1;fill-rule:evenodd;stroke-width:0.40092;stroke-linecap:butt;stroke-linejoin:miter;stroke-miterlimit:4;stroke-dasharray:none;stroke-dashoffset:0;stroke-opacity:1" />
    </clipPath>
    <clipPath
       id="clipPath1516"
       clipPathUnits="userSpaceOnUse">
      <path
         d="M 66.126416,0 C 60.178865,0 55.390624,4.7879349 55.390624,10.735495 V 202.1052 C 55.390624,208.05274 60.178865,212.84098 66.126416,212.84098 H 143.87389 C 149.82145,212.84098 154.60938,208.05274 154.60938,202.1052 V 10.735495 C 154.60938,4.7879349 149.82145,0 143.87389,0 H 131.95236 L 131.92089,4.9086781 C 131.90344,7.6280981 129.73139,9.8173551 127.01192,9.8173551 H 82.957186 C 80.237714,9.8173551 78.008626,7.62786 78.048514,4.9086781 L 78.062535,0 Z"
         style="vector-effect:none;fill:#009cfc;fill-opacity:1;fill-rule:evenodd;stroke-width:0.407345;stroke-linecap:butt;stroke-linejoin:miter;stroke-miterlimit:4;stroke-dasharray:none;stroke-dashoffset:0;stroke-opacity:1"
         id="path1518" />
    </clipPath>
    <clipPath
       id="clipPath4045"
       clipPathUnits="userSpaceOnUse">
      <rect
         ry="10.583318"
         y="101.6544"
         x="11.18786"
         height="104.76704"
         width="165.67917"
         id="rect4047"
         style="opacity:0.3;vector-effect:none;fill:#000000;fill-opacity:1;fill-rule:evenodd;stroke-width:0.400918;stroke-linecap:butt;stroke-linejoin:miter;stroke-miterlimit:4;stroke-dasharray:none;stroke-dashoffset:0;stroke-opacity:1" />
    </clipPath>
    <clipPath
       id="clipPath2145"
       clipPathUnits="userSpaceOnUse">
      <rect
         ry="10.583333"
         y="96.116402"
         x="22.160311"
         height="104.76719"
         width="165.6794"
         id="rect2147"
         style="opacity:0.3;vector-effect:none;fill:#000000;fill-opacity:1;fill-rule:evenodd;stroke-width:0.40092;stroke-linecap:butt;stroke-linejoin:miter;stroke-miterlimit:4;stroke-dasharray:none;stroke-dashoffset:0;stroke-opacity:1" />
    </clipPath>
    <clipPath
       id="clipPath2059"
       clipPathUnits="userSpaceOnUse">
      <path
         d="M 67.77042,22.652053 C 61.822867,22.652053 57.034629,27.439988 57.034629,33.387549 V 224.75727 C 57.034629,230.70481 61.822867,235.49305 67.77042,235.49305 H 145.5179 C 151.46546,235.49305 156.25339,230.70481 156.25339,224.75727 V 33.387549 C 156.25339,27.439988 151.46546,22.652053 145.5179,22.652053 H 133.59637 L 133.5649,27.56073 C 133.54744,30.28015 131.3754,32.469407 128.65593,32.469407 H 84.601188 C 81.881718,32.469407 79.65263,30.279912 79.692519,27.56073 L 79.706539,22.652053 Z"
         style="vector-effect:none;fill:#009cfc;fill-opacity:1;fill-rule:evenodd;stroke-width:0.407345;stroke-linecap:butt;stroke-linejoin:miter;stroke-miterlimit:4;stroke-dasharray:none;stroke-dashoffset:0;stroke-opacity:1"
         id="path2061" />
    </clipPath>
    <clipPath
       id="clipPath4745"
       clipPathUnits="userSpaceOnUse">
      <rect
         ry="10.583318"
         y="96.116478"
         x="-18.160358"
         height="104.76704"
         width="165.67917"
         id="rect4747"
         style="opacity:0.3;vector-effect:none;fill:#000000;fill-opacity:1;fill-rule:evenodd;stroke-width:0.400918;stroke-linecap:butt;stroke-linejoin:miter;stroke-miterlimit:4;stroke-dasharray:none;stroke-dashoffset:0;stroke-opacity:1" />
    </clipPath>
    <clipPath
       id="clipPath2765"
       clipPathUnits="userSpaceOnUse">
      <rect
         ry="10.583333"
         y="96.116402"
         x="22.160303"
         height="104.76719"
         width="165.6794"
         id="rect2767"
         style="opacity:0.3;vector-effect:none;fill:#000000;fill-opacity:1;fill-rule:evenodd;stroke-width:0.40092;stroke-linecap:butt;stroke-linejoin:miter;stroke-miterlimit:4;stroke-dasharray:none;stroke-dashoffset:0;stroke-opacity:1" />
    </clipPath>
    <clipPath
       id="clipPath2679"
       clipPathUnits="userSpaceOnUse">
      <path
         d="M 66.126413,42.079503 C 60.17886,42.079503 55.390624,46.867437 55.390624,52.814998 V 244.18471 C 55.390624,250.13225 60.17886,254.92049 66.126413,254.92049 H 143.87389 C 149.82145,254.92049 154.60938,250.13225 154.60938,244.18471 V 52.814998 C 154.60938,46.867437 149.82145,42.079503 143.87389,42.079503 H 131.95236 L 131.92089,46.98818 C 131.90343,49.707602 129.73139,51.896857 127.01192,51.896857 H 82.957183 C 80.237714,51.896857 78.008623,49.707361 78.048514,46.98818 L 78.062532,42.079503 Z"
         style="vector-effect:none;fill:#009cfc;fill-opacity:1;fill-rule:evenodd;stroke-width:0.407345;stroke-linecap:butt;stroke-linejoin:miter;stroke-miterlimit:4;stroke-dasharray:none;stroke-dashoffset:0;stroke-opacity:1"
         id="path2681" />
    </clipPath>
    <clipPath
       id="clipPath5413"
       clipPathUnits="userSpaceOnUse">
      <rect
         ry="10.583318"
         y="100.41457"
         x="-8.3783894"
         height="104.76704"
         width="165.67917"
         id="rect5415"
         style="opacity:0.3;vector-effect:none;fill:#000000;fill-opacity:1;fill-rule:evenodd;stroke-width:0.400918;stroke-linecap:butt;stroke-linejoin:miter;stroke-miterlimit:4;stroke-dasharray:none;stroke-dashoffset:0;stroke-opacity:1" />
    </clipPath>
    <clipPath
       id="clipPath3387"
       clipPathUnits="userSpaceOnUse">
      <rect
         style="opacity:0.3;vector-effect:none;fill:#000000;fill-opacity:1;fill-rule:evenodd;stroke-width:0.40092;stroke-linecap:butt;stroke-linejoin:miter;stroke-miterlimit:4;stroke-dasharray:none;stroke-dashoffset:0;stroke-opacity:1"
         id="rect3389"
         width="165.6794"
         height="104.76719"
         x="22.160303"
         y="0"
         ry="10.583333" />
    </clipPath>
    <clipPath
       id="clipPath3299"
       clipPathUnits="userSpaceOnUse">
      <path
         d="M 66.126413,0 C 60.17886,0 55.390624,4.7879349 55.390624,10.735495 V 202.10521 C 55.390624,208.05275 60.17886,212.84099 66.126413,212.84099 H 143.87389 C 149.82145,212.84099 154.60938,208.05275 154.60938,202.10521 V 10.735495 C 154.60938,4.7879349 149.82145,0 143.87389,0 H 131.95236 L 131.92089,4.9086781 C 131.90344,7.6280981 129.73139,9.8173551 127.01192,9.8173551 H 82.957181 C 80.237711,9.8173551 78.008623,7.6278589 78.048512,4.9086781 L 78.062532,0 Z"
         style="vector-effect:none;fill:#009cfc;fill-opacity:1;fill-rule:evenodd;stroke-width:0.407345;stroke-linecap:butt;stroke-linejoin:miter;stroke-miterlimit:4;stroke-dasharray:none;stroke-dashoffset:0;stroke-opacity:1"
         id="path3301" />
    </clipPath>
    <clipPath
       clipPathUnits="userSpaceOnUse"
       id="clipPath3387-4">
      <rect
         ry="10.583333"
         y="0"
         x="22.160303"
         height="104.76719"
         width="165.6794"
         id="rect3389-0"
         style="opacity:0.3;vector-effect:none;fill:#000000;fill-opacity:1;fill-rule:evenodd;stroke-width:0.40092;stroke-linecap:butt;stroke-linejoin:miter;stroke-miterlimit:4;stroke-dasharray:none;stroke-dashoffset:0;stroke-opacity:1" />
    </clipPath>
    <clipPath
       clipPathUnits="userSpaceOnUse"
       id="clipPath3299-2">
      <path
         id="path3301-8"
         style="vector-effect:none;fill:#009cfc;fill-opacity:1;fill-rule:evenodd;stroke-width:0.407345;stroke-linecap:butt;stroke-linejoin:miter;stroke-miterlimit:4;stroke-dasharray:none;stroke-dashoffset:0;stroke-opacity:1"
         d="M 66.126413,0 C 60.17886,0 55.390624,4.7879349 55.390624,10.735495 V 202.10521 C 55.390624,208.05275 60.17886,212.84099 66.126413,212.84099 H 143.87389 C 149.82145,212.84099 154.60938,208.05275 154.60938,202.10521 V 10.735495 C 154.60938,4.7879349 149.82145,0 143.87389,0 H 131.95236 L 131.92089,4.9086781 C 131.90344,7.6280981 129.73139,9.8173551 127.01192,9.8173551 H 82.957181 C 80.237711,9.8173551 78.008623,7.6278589 78.048512,4.9086781 L 78.062532,0 Z" />
    </clipPath>
    <clipPath
       clipPathUnits="userSpaceOnUse"
       id="clipPath886">
      <rect
         ry="10.583318"
         y="105.3715"
         x="-8.3783894"
         height="104.76704"
         width="165.67917"
         id="rect888"
         style="opacity:0.3;vector-effect:none;fill:#000000;fill-opacity:1;fill-rule:evenodd;stroke-width:0.400918;stroke-linecap:butt;stroke-linejoin:miter;stroke-miterlimit:4;stroke-dasharray:none;stroke-dashoffset:0;stroke-opacity:1" />
    </clipPath>
  </defs>
  <sodipodi:namedview
     inkscape:window-maximized="1"
     inkscape:window-y="25"
     inkscape:window-x="0"
     inkscape:window-height="712"
     inkscape:window-width="1366"
     inkscape:pagecheckerboard="true"
     units="px"
     showgrid="false"
     inkscape:document-rotation="0"
     inkscape:current-layer="layer1"
     inkscape:document-units="px"
     inkscape:cy="1129.3972"
     inkscape:cx="286.0216"
     inkscape:zoom="0.35"
     inkscape:pageshadow="2"
     inkscape:pageopacity="0.0"
     borderopacity="1.0"
     bordercolor="#666666"
     pagecolor="#ffffff"
     id="base" />
  <metadata
     id="metadata3421">
    <rdf:RDF>
      <cc:Work
         rdf:about="">
        <dc:format>image/svg+xml</dc:format>
        <dc:type
           rdf:resource="http://purl.org/dc/dcmitype/StillImage" />
        <dc:title></dc:title>
      </cc:Work>
    </rdf:RDF>
  </metadata>
  <g
     id="layer1"
     inkscape:groupmode="layer"
     inkscape:label="Layer 1">
    <path
       d="M 150.6048,125.31771 C 147.02854,125.31771 144.14938,128.19668 144.14938,131.77294 V 246.84328 C 144.14938,250.41953 147.02854,253.29869 150.6048,253.29869 H 197.35425 C 200.93051,253.29869 203.80948,250.41953 203.80948,246.84328 V 131.77294 C 203.80948,128.19668 200.93051,125.31771 197.35425,125.31771 H 190.18585 L 190.16692,128.26928 C 190.15643,129.90448 188.85038,131.22086 187.21517,131.22086 H 160.72511 C 159.0899,131.22086 157.74955,129.90432 157.77354,128.26928 L 157.78197,125.31771 Z"
       style="vector-effect:none;fill:#009cfc;fill-opacity:1;fill-rule:evenodd;stroke-width:0.244936;stroke-linecap:butt;stroke-linejoin:miter;stroke-miterlimit:4;stroke-dasharray:none;stroke-dashoffset:0;stroke-opacity:1"
       id="rect1638" />
    <rect
       style="opacity:0.3;vector-effect:none;fill:#000000;fill-opacity:1;fill-rule:evenodd;stroke-width:0.400919;stroke-linecap:butt;stroke-linejoin:miter;stroke-miterlimit:4;stroke-dasharray:none;stroke-dashoffset:0;stroke-opacity:1"
       id="rect2787"
       width="165.67917"
       height="104.76704"
       x="-8.3783894"
       y="136.92467"
       ry="10.583319" />
  </g>
</svg>
