<svg width="24" height="24" version="1.1" viewBox="0 0 24 24" xmlns="http://www.w3.org/2000/svg">
 <g>
  <g transform="scale(.046875)">
   <path d="m305 256c0 27.062-21.938 49-49 49s-49-21.938-49-49 21.938-49 49-49 49 21.938 49 49z"/>
   <path d="m370.59 169.3c-2.3555-6.3828-6.1133-12.16-10.996-16.902-4.7422-4.8828-10.516-8.6406-16.902-10.996-5.1797-2.0117-12.961-4.4062-27.293-5.0586-15.504-0.70704-20.152-0.85938-59.402-0.85938-39.254 0-43.902 0.14844-59.402 0.85547-14.332 0.65625-22.117 3.0508-27.293 5.0625-6.3867 2.3555-12.164 6.1133-16.902 10.996-4.8828 4.7422-8.6406 10.516-11 16.902-2.0117 5.1797-4.4062 12.965-5.0586 27.297-0.70703 15.5-0.85937 20.148-0.85937 59.402 0 39.25 0.15234 43.898 0.85937 59.402 0.65234 14.332 3.0469 22.113 5.0586 27.293 2.3594 6.3867 6.1133 12.16 10.996 16.902 4.7422 4.8828 10.516 8.6406 16.902 10.996 5.1797 2.0156 12.965 4.4102 27.297 5.0625 15.5 0.70703 20.145 0.85546 59.398 0.85546 39.258 0 43.906-0.14843 59.402-0.85546 14.332-0.65235 22.117-3.0469 27.297-5.0625 12.82-4.9453 22.953-15.078 27.898-27.898 2.0117-5.1797 4.4062-12.961 5.0625-27.293 0.70703-15.504 0.85547-20.152 0.85547-59.402 0-39.254-0.14844-43.902-0.85547-59.402-0.65234-14.332-3.0469-22.117-5.0625-27.297zm-114.59 162.18c-41.691 0-75.488-33.793-75.488-75.484s33.797-75.484 75.488-75.484c41.688 0 75.484 33.793 75.484 75.484s-33.797 75.484-75.484 75.484zm78.469-136.31c-9.7422 0-17.641-7.8984-17.641-17.641s7.8984-17.641 17.641-17.641 17.641 7.8984 17.641 17.641c-0.0039 9.7422-7.8984 17.641-17.641 17.641z"/>
   <path d="m256 0c-141.36 0-256 114.64-256 256s114.64 256 256 256 256-114.64 256-256-114.64-256-256-256zm146.11 316.61c-0.71094 15.648-3.1992 26.332-6.832 35.684-7.6367 19.746-23.246 35.355-42.992 42.992-9.3476 3.6328-20.035 6.1172-35.68 6.832-15.676 0.71485-20.684 0.88672-60.605 0.88672-39.926 0-44.93-0.17187-60.609-0.88672-15.645-0.71484-26.332-3.1992-35.68-6.832-9.8125-3.6914-18.695-9.4766-26.039-16.957-7.4766-7.3398-13.262-16.227-16.953-26.035-3.6328-9.3476-6.1211-20.035-6.832-35.68-0.72266-15.68-0.89063-20.688-0.89063-60.609 0-39.922 0.16797-44.93 0.88672-60.605 0.71094-15.648 3.1953-26.332 6.8281-35.684 3.6914-9.8086 9.4805-18.695 16.961-26.035 7.3398-7.4805 16.227-13.266 26.035-16.957 9.3516-3.6328 20.035-6.1172 35.684-6.832 15.676-0.71484 20.684-0.88672 60.605-0.88672s44.93 0.17188 60.605 0.89063c15.648 0.71093 26.332 3.1953 35.684 6.8242 9.8086 3.6914 18.695 9.4805 26.039 16.961 7.4766 7.3438 13.266 16.227 16.953 26.035 3.6367 9.3516 6.1211 20.035 6.8359 35.684 0.71484 15.676 0.88281 20.684 0.88281 60.605 0 39.922-0.16797 44.93-0.88672 60.605z"/>
  </g>
 </g>
</svg>
