<?xml version="1.0" encoding="UTF-8" standalone="no"?>
<svg
   xmlns:dc="http://purl.org/dc/elements/1.1/"
   xmlns:cc="http://creativecommons.org/ns#"
   xmlns:rdf="http://www.w3.org/1999/02/22-rdf-syntax-ns#"
   xmlns:svg="http://www.w3.org/2000/svg"
   xmlns="http://www.w3.org/2000/svg"
   xmlns:sodipodi="http://sodipodi.sourceforge.net/DTD/sodipodi-0.dtd"
   xmlns:inkscape="http://www.inkscape.org/namespaces/inkscape"
   sodipodi:docname="logo-white-path.svg"
   inkscape:version="1.0 (1.0+r73+1)"
   id="svg840"
   version="1.1"
   viewBox="0 0 51.293218 16.868794"
   height="63.756069"
   width="193.86414">
  <defs
     id="defs834" />
  <sodipodi:namedview
     inkscape:window-maximized="1"
     inkscape:window-y="25"
     inkscape:window-x="0"
     inkscape:window-height="712"
     inkscape:window-width="1366"
     inkscape:pagecheckerboard="true"
     fit-margin-bottom="0"
     fit-margin-right="0"
     fit-margin-left="0"
     fit-margin-top="0"
     units="px"
     showgrid="false"
     inkscape:document-rotation="0"
     inkscape:current-layer="layer1"
     inkscape:document-units="px"
     inkscape:cy="66.381434"
     inkscape:cx="117.08444"
     inkscape:zoom="1.4"
     inkscape:pageshadow="2"
     inkscape:pageopacity="0.0"
     borderopacity="1.0"
     bordercolor="#666666"
     pagecolor="#ffffff"
     id="base" />
  <metadata
     id="metadata837">
    <rdf:RDF>
      <cc:Work
         rdf:about="">
        <dc:format>image/svg+xml</dc:format>
        <dc:type
           rdf:resource="http://purl.org/dc/dcmitype/StillImage" />
        <dc:title></dc:title>
      </cc:Work>
    </rdf:RDF>
  </metadata>
  <g
     transform="translate(-74.139104,-117.0537)"
     id="layer1"
     inkscape:groupmode="layer"
     inkscape:label="Layer 1">
    <path
       id="circle847"
       style="vector-effect:none;fill:#ed6a80;fill-opacity:1;fill-rule:evenodd;stroke-width:0.0125955;stroke-linecap:butt;stroke-linejoin:miter;stroke-miterlimit:4;stroke-dasharray:none;stroke-dashoffset:0;stroke-opacity:1"
       d="M 125.43232,129.45062 A 1.5355661,1.5355661 0 0 1 123.89676,130.98618 1.5355661,1.5355661 0 0 1 122.36119,129.45062 1.5355661,1.5355661 0 0 1 123.89676,127.91505 1.5355661,1.5355661 0 0 1 125.43232,129.45062" />
    <g
       transform="translate(-4.9161082,-22.994935)"
       aria-label="Ilham"
       id="text839"
       style="font-style:normal;font-variant:normal;font-weight:normal;font-stretch:normal;font-size:18.4154px;line-height:1.25;font-family:Satisfy;-inkscape-font-specification:'Satisfy, Normal';font-variant-ligatures:normal;font-variant-caps:normal;font-variant-numeric:normal;font-variant-east-asian:normal;letter-spacing:0.101285px;word-spacing:0px;fill:#ffffff;stroke-width:0.460386">
      <path
         d="M 85.115749,149.00456 Q 84.774057,148.64488 84.558252,148.12335 84.36043,147.58384 84.252527,147.06231 84.126641,146.46885 84.07269,145.80345 83.982771,144.50861 84.36043,143.44757 84.73809,142.38653 85.385506,141.63121 86.032923,140.87589 86.824209,140.46226 87.63348,140.04863 88.388799,140.04863 88.730491,140.04863 88.928313,140.21049 89.144118,140.37234 89.252021,140.60613 89.359923,140.83992 89.377907,141.09169 89.413875,141.34347 89.413875,141.50532 89.413875,142.0808 89.377907,142.6383 89.359923,143.1958 89.287988,143.82523 89.234037,144.45466 89.10815,145.17401 88.982264,145.89336 88.784442,146.77457 88.676539,147.26013 88.478718,148.01545 88.280896,148.77077 88.011139,149.68794 88.82041,149.70593 89.305972,149.75988 89.809518,149.79585 89.953388,149.81383 90.079275,149.83181 90.133226,149.93972 90.205162,150.04762 90.061291,150.28141 89.917421,150.49721 89.647664,150.53318 89.395891,150.56915 89.144118,150.56915 89.000248,150.56915 88.604604,150.56915 88.226945,150.56915 87.705415,150.60512 87.327755,151.72011 86.842193,152.85309 86.374615,153.96809 85.799133,154.86728 85.223652,155.78445 84.540268,156.34195 83.856884,156.91743 83.083581,156.91743 81.968586,156.91743 81.195283,156.48582 80.439964,156.07219 79.972386,155.49671 79.486823,154.93921 79.271018,154.36373 79.055213,153.80623 79.055213,153.50051 79.055213,152.96099 79.342953,152.4035 79.630694,151.846 80.260126,151.36044 80.871575,150.85689 81.860684,150.47923 82.849792,150.10157 84.234544,149.90375 84.810025,149.83181 85.331555,149.79585 85.853085,149.7419 86.320663,149.70593 86.680339,148.35714 87.040015,146.95441 87.417674,145.55167 87.687431,144.36474 87.795334,143.87918 87.903237,143.32168 88.011139,142.7462 88.065091,142.24266 88.137026,141.73911 88.137026,141.39742 88.15501,141.05573 88.065091,141.01976 88.011139,141.00177 87.795334,141.16363 87.579528,141.3075 87.291788,141.59524 87.004047,141.88298 86.716307,142.29661 86.44655,142.69225 86.266712,143.15983 85.943004,144.077 85.763166,144.95821 85.619295,145.71353 85.583328,146.55876 85.54736,147.404 85.853085,148.08739 85.817117,148.33916 85.745182,148.50101 85.691231,148.59093 85.655263,148.66287 85.601312,148.71682 85.529376,148.78875 85.457441,148.84271 85.349539,148.91464 85.25962,148.96859 85.115749,149.00456 Z M 84.899944,154.02204 Q 85.097766,153.60841 85.385506,152.74519 85.673247,151.88197 85.996955,150.74899 85.115749,150.85689 84.21656,151.05471 83.31737,151.23455 82.580035,151.55826 81.860684,151.86398 81.393105,152.31358 80.94351,152.76317 80.94351,153.37462 80.94351,154.02204 81.195283,154.5076 81.46504,154.99316 81.824716,155.31687 82.202376,155.64058 82.580035,155.80243 82.975678,155.98227 83.245435,155.98227 83.515192,155.98227 83.748981,155.76646 84.000754,155.56864 84.198576,155.26292 84.414382,154.97518 84.576236,154.63349 84.756074,154.29179 84.899944,154.02204 Z"
         style="font-style:normal;font-variant:normal;font-weight:normal;font-stretch:normal;font-size:18.4154px;font-family:Satisfy;-inkscape-font-specification:'Satisfy, Normal';font-variant-ligatures:normal;font-variant-caps:normal;font-variant-numeric:normal;font-variant-east-asian:normal;fill:#ffffff;stroke-width:0.460386"
         id="path1428" />
      <path
         d="M 90.162576,153.26672 Q 90.953863,149.93972 91.421441,147.92553 91.907004,145.91135 92.158777,144.8503 92.446517,143.59144 92.55442,143.10588 92.608371,142.76419 92.644339,142.44048 92.680307,142.15274 92.680307,141.84701 92.680307,141.54129 92.626355,141.28951 92.770226,141.1996 92.93208,141.14564 93.111917,141.09169 93.273772,141.05573 93.471593,141.00177 93.669415,140.96581 93.867237,140.92984 94.029091,140.92984 94.172961,140.92984 94.298848,140.96581 94.424734,140.98379 94.460702,141.07371 94.568604,141.16363 94.550621,141.43339 94.550621,141.70314 94.514653,141.99088 94.442718,142.33257 94.352799,142.72822 94.136993,143.50152 93.759334,144.95821 93.435626,146.19909 92.878128,148.33916 92.338615,150.47923 91.51136,153.7343 91.421441,153.82422 91.295555,153.86018 91.169668,153.89615 91.061766,153.89615 90.935879,153.89615 90.792009,153.87817 90.666122,153.8422 90.540236,153.77026 90.432333,153.69833 90.32443,153.57244 90.216528,153.46454 90.162576,153.26672 Z"
         style="font-style:normal;font-variant:normal;font-weight:normal;font-stretch:normal;font-size:18.4154px;font-family:Satisfy;-inkscape-font-specification:'Satisfy, Normal';font-variant-ligatures:normal;font-variant-caps:normal;font-variant-numeric:normal;font-variant-east-asian:normal;fill:#ffffff;stroke-width:0.460386"
         id="path1430" />
      <path
         d="M 103.84162,149.59803 Q 103.96751,149.45415 104.09339,149.45415 104.23727,149.43617 104.3092,149.52609 104.39912,149.59803 104.38114,149.75988 104.38114,149.92173 104.23727,150.11955 103.89557,150.58713 103.44598,151.09068 102.99638,151.57624 102.47485,152.04382 101.97131,152.5114 101.44978,152.92503 100.92825,153.33865 100.44269,153.60841 99.903172,153.91413 99.525513,153.91413 99.165837,153.91413 98.806161,153.44656 98.482453,153.03293 98.482453,152.56535 98.500437,152.07979 98.698258,151.36044 98.824145,150.91084 99.03995,150.29939 99.27374,149.66996 99.399626,149.09448 99.543496,148.519 99.489545,148.12335 99.435594,147.70973 99.021967,147.70973 98.734226,147.70973 98.392534,147.90755 98.068826,148.10537 97.727134,148.42908 97.403426,148.7348 97.097701,149.13045 96.791977,149.52609 96.558187,149.90375 96.414317,150.60512 96.270447,151.2885 96.14456,151.86398 96.00069,152.54737 95.874803,153.21277 95.748917,153.7343 95.641014,153.82422 95.515128,153.86018 95.389241,153.89615 95.281338,153.89615 95.155452,153.89615 95.029565,153.87817 94.885695,153.8422 94.759809,153.77026 94.651906,153.69833 94.544003,153.57244 94.4361,153.46454 94.382149,153.26672 95.19142,149.93972 95.658998,147.92553 96.126577,145.91135 96.37835,144.8503 96.66609,143.59144 96.773993,143.10588 96.827944,142.76419 96.863912,142.44048 96.899879,142.15274 96.899879,141.84701 96.899879,141.54129 96.845928,141.28951 96.989798,141.1996 97.151652,141.14564 97.33149,141.09169 97.493344,141.05573 97.691166,141.00177 97.888988,140.96581 98.086809,140.92984 98.248664,140.92984 98.392534,140.92984 98.51842,140.96581 98.644307,140.98379 98.680275,141.07371 98.788177,141.16363 98.770193,141.43339 98.770193,141.70314 98.734226,141.99088 98.662291,142.33257 98.572372,142.72822 98.194712,144.1849 97.727134,145.56966 97.259555,146.93642 96.863912,148.50101 97.097701,148.14134 97.421409,147.76368 97.745118,147.38602 98.122777,147.08029 98.51842,146.75659 98.950031,146.55876 99.381642,146.34296 99.867205,146.34296 100.11898,146.34296 100.33478,146.43288 100.56857,146.50481 100.73043,146.70264 100.91026,146.88247 101.00018,147.20618 101.0901,147.51191 101.07212,147.97948 101.07212,148.26722 101.00018,148.57295 100.94623,148.87867 100.83833,149.25633 100.73043,149.61601 100.55059,150.0656 100.38873,150.5152 100.15495,151.10866 99.993091,151.52229 99.903172,151.81003 99.813253,152.09777 99.93914,152.31358 100.10099,152.60132 100.56857,152.45745 101.05413,152.29559 102.00728,151.52229 102.22308,151.34245 102.49284,151.0727 102.76259,150.80294 103.01437,150.53318 103.26614,150.24544 103.48195,149.99367 103.69775,149.7419 103.84162,149.59803 Z"
         style="font-style:normal;font-variant:normal;font-weight:normal;font-stretch:normal;font-size:18.4154px;font-family:Satisfy;-inkscape-font-specification:'Satisfy, Normal';font-variant-ligatures:normal;font-variant-caps:normal;font-variant-numeric:normal;font-variant-east-asian:normal;fill:#ffffff;stroke-width:0.460386"
         id="path1432" />
      <path
         d="M 112.48521,149.97568 Q 112.23343,150.33536 111.83779,150.87487 111.44215,151.3964 111.01053,151.93592 110.59691,152.45745 110.18328,152.90704 109.78764,153.33865 109.51788,153.51849 109.33804,153.62639 109.10425,153.69833 108.87046,153.77026 108.61869,153.78825 108.3849,153.80623 108.1691,153.75228 107.95329,153.71631 107.79144,153.60841 107.62958,153.48252 107.52168,153.24873 107.43176,153.05091 107.34184,152.7272 107.26991,152.4035 107.28789,151.91793 106.85628,152.63729 106.33475,153.03293 105.81322,153.41059 105.34564,153.59043 104.80613,153.78825 104.26661,153.82422 104.01484,153.82422 103.7271,153.64438 103.43936,153.48252 103.24154,153.12285 103.04372,152.74519 102.98976,152.16971 102.93581,151.57624 103.13363,150.76697 103.38541,149.66996 103.92492,148.77077 104.48242,147.87158 105.12984,147.24215 105.77725,146.59473 106.40668,146.27102 107.03612,145.94732 107.44974,145.98328 107.93531,146.0732 108.24103,146.27102 108.4928,146.45086 108.56474,146.81054 108.65466,147.15223 108.277,147.72771 108.52877,147.67376 108.69063,147.65578 108.87046,147.63779 108.96038,147.63779 109.06829,147.63779 109.10425,147.65578 109.12224,147.69174 109.12224,147.81763 109.12224,147.92553 109.06829,148.23126 109.01433,148.53698 108.90643,149.05851 108.79853,149.58004 108.61869,150.4073 108.58272,150.56915 108.54676,150.71302 108.52877,150.83891 108.4928,150.98278 108.47482,151.10866 108.43885,151.2885 108.40289,151.46834 108.34893,151.7381 108.33095,151.89995 108.33095,152.09777 108.34893,152.27761 108.40289,152.43946 108.45684,152.60132 108.56474,152.70922 108.69063,152.79914 108.90643,152.79914 109.08627,152.79914 109.37401,152.58333 109.66175,152.34954 109.98546,152.00785 110.30917,151.64818 110.65086,151.23455 111.01053,150.80294 111.31626,150.4073 111.62198,150.01165 111.85577,149.70593 112.10755,149.4002 112.21545,149.25633 112.35932,149.09448 112.50319,149.0765 112.64706,149.04053 112.71899,149.14843 112.79093,149.25633 112.73698,149.47214 112.70101,149.68794 112.48521,149.97568 Z M 107.21595,150.76697 Q 107.30587,150.4073 107.43176,149.92173 107.55765,149.43617 107.64757,148.98658 107.73748,148.53698 107.77345,148.24924 107.8274,147.94352 107.75547,147.9615 107.66555,147.97948 107.55765,148.01545 107.46773,148.05142 107.32386,148.0694 107.17999,148.08739 107.03612,148.12335 107.17999,147.83561 107.19797,147.65578 107.23394,147.45795 107.21595,147.35005 107.19797,147.22417 107.14402,147.15223 106.9462,146.99038 106.44265,147.42199 105.95709,147.83561 105.30967,148.96859 105.03992,149.43617 104.87806,149.97568 104.71621,150.49721 104.64427,150.96479 104.59032,151.43237 104.62629,151.79205 104.66226,152.13374 104.77016,152.24164 104.96798,152.43946 105.21975,152.43946 105.47153,152.42148 105.7233,152.29559 105.99306,152.15172 106.24483,151.93592 106.51459,151.72011 106.71241,151.48632 106.92821,151.25253 107.0541,151.05471 107.19797,150.85689 107.21595,150.76697 Z"
         style="font-style:normal;font-variant:normal;font-weight:normal;font-stretch:normal;font-size:18.4154px;font-family:Satisfy;-inkscape-font-specification:'Satisfy, Normal';font-variant-ligatures:normal;font-variant-caps:normal;font-variant-numeric:normal;font-variant-east-asian:normal;fill:#ffffff;stroke-width:0.460386"
         id="path1434" />
      <path
         d="M 119.76202,152.7272 Q 119.76202,152.34954 119.83396,151.86398 119.92388,151.37842 120.04976,150.87487 120.17565,150.35334 120.30154,149.86778 120.42742,149.38222 120.51734,149.00456 120.62524,148.53698 120.49936,148.28521 120.37347,148.03344 120.06775,148.03344 119.92388,148.03344 119.49227,148.28521 119.07864,148.53698 118.57509,149.16641 118.08953,149.77786 117.60397,150.83891 117.13639,151.88197 116.86663,153.50051 116.52494,153.68035 116.21922,153.7343 116.05736,153.77026 115.93148,153.78825 115.5718,153.80623 115.4639,153.66236 115.35599,153.53647 115.49986,153.01494 115.5718,152.76317 115.75164,152.20567 115.94946,151.64818 116.1293,151.00076 116.30913,150.33536 116.43502,149.68794 116.57889,149.02254 116.57889,148.53698 116.57889,148.19529 116.453,148.0694 116.3451,147.94352 116.1293,147.94352 115.96744,147.94352 115.58978,148.12335 115.21212,148.30319 114.74455,148.82472 114.27697,149.34625 113.80939,150.28141 113.35979,151.19858 113.03609,152.67325 V 152.63729 Q 113.00012,152.78116 112.96415,152.92503 112.92818,153.05091 112.9102,153.19478 112.89221,153.33865 112.85625,153.46454 L 111.95706,153.86018 Q 111.86714,153.89615 111.72327,153.91413 111.59738,153.93212 111.4715,153.86018 111.36359,153.80623 111.30964,153.60841 111.25569,153.41059 111.34561,153.01494 L 112.47859,148.32118 Q 112.53254,148.08739 112.56851,147.87158 112.60447,147.67376 112.60447,147.49392 112.62246,147.2961 112.58649,147.17021 112.89221,147.02634 113.126,146.95441 113.35979,146.88247 113.50366,146.84651 113.6835,146.79255 113.80939,146.79255 114.38487,146.79255 114.18705,147.78166 114.11511,148.0694 113.97124,148.6269 114.31293,148.19529 114.69059,147.81763 115.08624,147.42199 115.48188,147.11626 115.87752,146.81054 116.27317,146.6307 116.68679,146.45086 117.08244,146.45086 117.38816,146.45086 117.58598,146.6307 117.80179,146.81054 117.90969,147.11626 118.03558,147.404 118.05356,147.81763 118.07155,148.21327 118.01759,148.64488 118.30534,148.26722 118.64703,147.88957 119.0067,147.49392 119.38436,147.1882 119.78001,146.88247 120.19363,146.68465 120.60726,146.48683 121.02089,146.48683 121.50645,146.48683 121.75822,146.77457 122.02798,147.06231 122.1179,147.51191 122.2258,147.9615 122.17185,148.48303 122.13588,149.00456 122.02798,149.49012 L 121.41653,151.91793 Q 121.21871,152.81712 121.79419,152.81712 122.24378,152.81712 122.7833,152.38551 123.32281,151.9539 123.82636,151.36044 124.34789,150.76697 124.79748,150.13754 125.24708,149.50811 125.5528,149.13045 125.6607,149.00456 125.76861,148.98658 125.89449,148.96859 125.96643,149.04053 126.05635,149.09448 126.05635,149.23835 126.07433,149.38222 125.96643,149.59803 125.60675,150.22746 125.08522,151.00076 124.56369,151.75608 123.93426,152.42148 123.32281,153.08688 122.62144,153.53647 121.92008,153.98607 121.16476,153.98607 120.91298,153.98607 120.66121,153.93212 120.42742,153.87817 120.21162,153.7343 120.0138,153.59043 119.88791,153.35664 119.76202,153.10486 119.76202,152.7272 Z"
         style="font-style:normal;font-variant:normal;font-weight:normal;font-stretch:normal;font-size:18.4154px;font-family:Satisfy;-inkscape-font-specification:'Satisfy, Normal';font-variant-ligatures:normal;font-variant-caps:normal;font-variant-numeric:normal;font-variant-east-asian:normal;fill:#ffffff;stroke-width:0.460386"
         id="path1436" />
    </g>
  </g>
</svg>
