<?xml version="1.0" encoding="UTF-8" standalone="no"?>
<svg
   xmlns:dc="http://purl.org/dc/elements/1.1/"
   xmlns:cc="http://creativecommons.org/ns#"
   xmlns:rdf="http://www.w3.org/1999/02/22-rdf-syntax-ns#"
   xmlns:svg="http://www.w3.org/2000/svg"
   xmlns="http://www.w3.org/2000/svg"
   xmlns:sodipodi="http://sodipodi.sourceforge.net/DTD/sodipodi-0.dtd"
   xmlns:inkscape="http://www.inkscape.org/namespaces/inkscape"
   inkscape:version="1.0 (1.0+r73+1)"
   sodipodi:docname="react.svg"
   id="svg10"
   version="1.1"
   preserveAspectRatio="xMinYMin meet"
   viewBox="0 0 256 230"
   height="2246"
   width="2500">
  <metadata
     id="metadata16">
    <rdf:RDF>
      <cc:Work
         rdf:about="">
        <dc:format>image/svg+xml</dc:format>
        <dc:type
           rdf:resource="http://purl.org/dc/dcmitype/StillImage" />
        <dc:title></dc:title>
      </cc:Work>
    </rdf:RDF>
  </metadata>
  <defs
     id="defs14" />
  <sodipodi:namedview
     inkscape:current-layer="svg10"
     inkscape:window-maximized="1"
     inkscape:window-y="25"
     inkscape:window-x="0"
     inkscape:cy="1149.93"
     inkscape:cx="1139.7388"
     inkscape:zoom="0.21059662"
     inkscape:pagecheckerboard="true"
     showgrid="false"
     id="namedview12"
     inkscape:window-height="712"
     inkscape:window-width="1366"
     inkscape:pageshadow="2"
     inkscape:pageopacity="0"
     guidetolerance="10"
     gridtolerance="10"
     objecttolerance="10"
     borderopacity="1"
     bordercolor="#666666"
     pagecolor="#ffffff" />
  <path
     transform="scale(0.10240427)"
     d="M 1702.627 141.74414 C 1592.2094 140.96094 1450.6669 210.9168 1308.0703 335.00586 A 1475.8759 1475.8759 0 0 0 1253.1309 385.42383 A 1343.4303 1343.4303 0 0 0 1216.5703 351.6543 C 1017.3111 174.72809 817.58288 100.18063 697.65625 169.60156 C 582.66105 236.17105 548.59968 433.84822 597.00586 681.20117 A 1473.669 1473.669 0 0 0 613.31445 754.28516 C 585.05391 762.31216 557.76063 770.86561 531.64844 779.9668 C 298.04491 861.40871 148.85156 989.06021 148.85156 1121.457 C 148.85156 1258.2091 309.00039 1395.3707 552.33008 1478.5312 A 1254.2445 1254.2445 0 0 0 611.99609 1497.1836 A 1443.4261 1443.4261 0 0 0 594.66211 1575.959 C 548.51169 1819.0152 584.55557 2012.0067 699.24805 2078.166 C 817.7099 2146.4737 1016.5296 2076.2605 1210.1348 1907.0293 C 1225.4369 1893.6509 1240.7975 1879.4623 1256.1777 1864.5898 A 1448.5723 1448.5723 0 0 0 1315.8242 1919.0117 C 1503.3555 2080.3819 1688.5614 2145.5461 1803.1562 2079.2109 C 1921.5107 2010.6982 1959.9667 1803.3723 1910.0273 1551.127 C 1906.2189 1531.8602 1901.7752 1512.1828 1896.7949 1492.1445 C 1910.7592 1488.0236 1924.4615 1483.7654 1937.8301 1479.332 C 2190.7883 1395.5269 2355.3613 1260.0352 2355.3613 1121.457 C 2355.3613 988.58172 2201.3631 860.07079 1963.0527 778.0332 A 1478.1024 1478.1024 0 0 0 1892.0215 755.65234 A 1342.7174 1342.7174 0 0 0 1902.9961 707.20703 C 1956.7634 446.2023 1921.6083 235.93656 1801.5547 166.7207 C 1772.779 150.12472 1739.4328 142.00521 1702.627 141.74414 z M 1702.5508 235.79297 C 1722.8757 236.08456 1740.3873 240.25226 1754.4785 248.37891 C 1828.3622 290.99431 1857.0996 462.83167 1810.6758 688.18359 A 1245.3093 1245.3093 0 0 1 1800.7559 732.04883 C 1709.2167 710.92666 1609.8062 695.20467 1505.7285 685.43945 C 1445.0963 599.10517 1382.2767 520.60263 1319.2129 452.65625 A 1385.8797 1385.8797 0 0 1 1369.9531 406.11523 C 1499.7667 293.14113 1622.8146 234.64904 1702.5508 235.79297 z M 800.25781 237.87305 C 885.37937 236.9914 1016.8774 300.41216 1153.9746 422.14062 C 1164.9702 431.90584 1176.0161 442.12935 1187.0801 452.70508 C 1122.9812 521.5401 1059.6342 599.90591 999.11914 685.3125 C 895.34418 694.93124 796.00205 710.37977 704.67773 731.07227 A 1382.0224 1382.0224 0 0 1 689.51172 663.08789 L 689.51172 663.09766 C 648.03884 451.16314 675.57711 291.29715 744.88086 251.18164 C 759.87657 242.50158 778.56016 238.09778 800.25781 237.87305 z M 1253.1602 520.06641 C 1296.6349 567.16405 1340.1776 619.76019 1383.0078 676.81836 A 2775.7142 2775.7142 0 0 0 1122.2188 676.75977 C 1165.0881 620.22892 1209.0018 567.7109 1253.1602 520.06641 z M 1252.1152 767.97656 C 1320.4327 767.97656 1387.8035 770.59201 1453.4062 775.5918 A 2838.7878 2838.7878 0 0 1 1559.7207 945.3418 A 3089.8906 3089.8906 0 0 1 1654.8438 1122.3848 A 2839.7838 2839.7838 0 0 1 1560.0332 1300.9902 L 1560.0234 1300.9902 A 3090.4765 3090.4765 0 0 1 1454.168 1471.7852 C 1388.702 1476.4627 1321.0479 1478.873 1252.1055 1478.873 C 1183.4462 1478.873 1116.6536 1476.7362 1052.3301 1472.5664 A 2673.697 2673.697 0 0 1 944.49219 1301.5078 A 2649.6355 2649.6355 0 0 1 850.35547 1123.7227 A 2674.3415 2674.3415 0 0 1 944.20898 945.83984 L 944.20898 945.85938 A 2648.8347 2648.8347 0 0 1 1051.1973 775.5332 C 1116.8195 770.57247 1184.1005 767.97656 1252.1152 767.97656 z M 930.17578 787.59375 A 2771.271 2771.271 0 0 0 862.5332 898.76172 A 2785.4306 2785.4306 0 0 0 800.25 1012.8672 C 772.79997 947.76248 749.31365 883.75133 730.13477 821.9375 C 793.09112 807.84629 860.22753 796.33362 930.17578 787.59375 z M 1574.2012 787.76953 C 1644.6084 796.65588 1712.0573 808.47131 1775.3945 822.93359 C 1756.3817 883.87832 1732.6824 947.60624 1704.7734 1012.9355 A 3285.2144 3285.2144 0 0 0 1641.2988 898.11719 A 2997.746 2997.746 0 0 0 1574.2012 787.76953 z M 638.625 845.08203 C 666.24103 934.89274 702.46081 1028.795 746.16992 1123.752 C 701.89443 1220.1249 665.15704 1315.5214 637.28711 1406.3867 A 1161.1625 1161.1625 0 0 1 582.81836 1389.3359 C 475.22519 1352.5601 386.3705 1304.7693 325.46484 1252.623 C 270.74057 1205.75 243.10547 1159.2191 243.10547 1121.457 C 243.10547 1041.1186 362.89506 938.63186 562.68164 868.97656 A 1360.0604 1360.0604 0 0 1 638.625 845.08203 z M 1866.7773 846.46875 C 1889.3448 853.01145 1911.2587 859.89483 1932.3711 867.16992 C 2136.5618 937.45019 2261.1074 1041.3822 2261.1074 1121.457 C 2261.1074 1206.7562 2126.5905 1317.4933 1908.1914 1389.8633 L 1908.1816 1389.8633 C 1896.1216 1393.8573 1883.7397 1397.715 1871.123 1401.4551 C 1843.1945 1313.0506 1805.5 1219.0409 1759.3887 1121.9258 C 1803.4005 1027.1055 1839.63 934.30688 1866.7773 846.46875 z M 1705.6719 1231.1699 C 1735.1628 1298.3937 1760.0243 1363.4303 1779.7695 1425.2734 C 1715.7878 1439.8724 1646.7177 1451.6293 1573.9375 1460.3594 A 3296.1222 3296.1222 0 0 0 1641.6797 1348.0781 A 2994.3281 2994.3281 0 0 0 1705.6719 1231.1699 z M 800.35742 1234.5586 A 2768.3805 2768.3805 0 0 0 862.91406 1348.7324 A 2785.7236 2785.7236 0 0 0 932.1875 1462.0488 C 859.92489 1453.9828 791.77276 1443.0541 728.83594 1429.3535 C 748.31755 1366.446 772.32148 1301.0597 800.35742 1234.5586 z M 1805.6172 1516.0605 C 1810.1092 1534.2239 1814.1134 1552.0242 1817.5605 1569.4355 C 1839.6397 1680.9739 1842.7943 1781.8197 1828.166 1860.6543 C 1815.022 1931.4912 1788.5963 1978.7156 1755.9219 1997.6309 C 1686.3838 2037.8831 1537.671 1985.5626 1377.3066 1847.5605 C 1358.9187 1831.7409 1340.3938 1814.8469 1321.8203 1796.9766 C 1383.9955 1728.9716 1446.1314 1649.9124 1506.7734 1562.123 C 1613.4487 1552.6606 1714.2245 1537.1827 1805.6172 1516.0605 z M 703.38867 1520.2793 C 793.76576 1540.2687 893.8111 1554.6527 1000.7402 1563.3242 C 1061.7826 1649.2288 1125.7156 1728.1904 1190.1465 1797.3379 A 1160.723 1160.723 0 0 1 1148.1055 1836.0469 C 1062.4938 1910.8875 976.70778 1963.9699 901.10547 1990.6777 L 901.0957 1990.6777 C 833.15909 2014.6709 779.04942 2015.3547 746.3457 1996.498 C 676.73923 1956.363 647.81415 1801.3898 687.27539 1593.5371 A 1352.551 1352.551 0 0 1 703.38867 1520.2793 z M 1385.3027 1570.168 C 1342.3358 1628.564 1298.9494 1681.961 1255.7676 1729.5078 C 1211.0917 1681.2969 1166.5333 1627.9781 1123.0098 1570.627 C 1165.2541 1572.287 1208.328 1573.127 1252.1055 1573.127 C 1297.0841 1573.127 1341.5448 1572.121 1385.3027 1570.168 z "
     style="stroke-width:9.76522;fill:#53c1de;fill-opacity:1"
     id="path4" />
  <path
     id="path8"
     fill="#53C1DE"
     d="M128.221 94.665c11.144 0 20.177 9.034 20.177 20.177 0 11.144-9.033 20.178-20.177 20.178-11.143 0-20.177-9.034-20.177-20.178 0-11.143 9.034-20.177 20.177-20.177" />
</svg>
