<svg width="10.599" height="17.839" version="1.1" viewBox="0 0 2.8043 4.72" xmlns="http://www.w3.org/2000/svg">
 <g transform="translate(-176.25 -142.78)">
  <path d="m177.65 142.78a0.13229 0.090988 0 0 0-0.13229 0.09099v4.2459l-1.0289-1.0247a0.13229 0.090988 0 0 0-0.18397-0.0231 0.13229 0.090988 0 0 0-0.0336 0.12653l1.2671 1.2624a0.1323 0.090997 0 0 0 0.00153 0.00177l0.00106 7.2e-4a0.1323 0.090997 0 0 0 0.00878 0.00782 0.1323 0.090997 0 0 0 0.00103 7.1e-4 0.1323 0.090997 0 0 0 0.00982 0.00711 0.1323 0.090997 0 0 0 0.00103 7e-4 0.1323 0.090997 0 0 0 0.01135 0.00605 0.1323 0.090997 0 0 0 0.00106 7.1e-4 0.1323 0.090997 0 0 0 0.01188 0.00498 0.1323 0.090997 0 0 0 0.00154 7.1e-4 0.1323 0.090997 0 0 0 0.01293 0.00391 0.1323 0.090997 0 0 0 0.00104 3.5e-4 0.1323 0.090997 0 0 0 0.01394 0.0032 0.1323 0.090997 0 0 0 0.00103 3.5e-4 0.1323 0.090997 0 0 0 0.01394 0.00178 0.1323 0.090997 0 0 0 0.01294 7.1e-4 0.1323 0.090997 0 0 0 0.00463 3.6e-4 0.1323 0.090997 0 0 0 0.02948-0.00213 0.1323 0.090997 0 0 0 0.01085-0.00214 0.1323 0.090997 0 0 0 0.00465-7.1e-4 0.1323 0.090997 0 0 0 0.00103-3.5e-4 0.1323 0.090997 0 0 0 0.01344-0.00356 0.1323 0.090997 0 0 0 0.00104-3.5e-4 0.1323 0.090997 0 0 0 0.01238-0.00498 0.1323 0.090997 0 0 0 0.00156-7.1e-4 0.1323 0.090997 0 0 0 0.00259-0.00142 0.1323 0.090997 0 0 0 0.00982-0.00498 0.1323 0.090997 0 0 0 0.01032-0.00639 0.1323 0.090997 0 0 0 0.00103-7.1e-4 0.1323 0.090997 0 0 0 0.00931-0.00747 0.1323 0.090997 0 0 0 0.00104-0.00106 0.1323 0.090997 0 0 0 0.00259-0.00249l1.2697-1.2649a0.13229 0.090988 0 0 0-0.0336-0.12653 0.13229 0.090988 0 0 0-0.18397 0.0231l-1.0289 1.0247v-4.2459a0.13229 0.090988 0 0 0-0.13229-0.09099z" style="color-rendering:auto;color:#000000;dominant-baseline:auto;fill:#fff;font-feature-settings:normal;font-variant-alternates:normal;font-variant-caps:normal;font-variant-east-asian:normal;font-variant-ligatures:normal;font-variant-numeric:normal;font-variant-position:normal;font-variation-settings:normal;image-rendering:auto;inline-size:0;isolation:auto;mix-blend-mode:normal;shape-margin:0;shape-padding:0;shape-rendering:auto;solid-color:#000000;stop-color:#000000;text-decoration-color:#000000;text-decoration-line:none;text-decoration-style:solid;text-indent:0;text-orientation:mixed;text-transform:none;white-space:normal"/>
 </g>
</svg>
